# xmcd
# 
# Track frame offsets:
#     150
#     16817
#     37634
#     54301
# 
# Disc length: 998
# 
# Revision: 2
# Processed by: cddbd v1.5.2PL0 Copyright (c) Steve Scherf et al.
# Submitted via: BonkEnc v1.0.6
# 
DISCID=1d03e404
DTITLE=SMAP - この瞬間、きっと夢じゃない
DYEAR=2008
DGENRE=JPop
TTITLE0=この瞬間、きっと夢じゃない
TTITLE1=two of us
TTITLE2=ROCKSTAR -inst
TTITLE3=ROCKSTAR <slow lab ver> -inst
EXTD=YEAR: 2006
EXTT0=
EXTT1=
EXTT2=
EXTT3=
PLAYORDER=
